<svg xmlns="http://www.w3.org/2000/svg" viewBox="0 0 256 256" focusable="false" color="var(--token-2e606580-c5cb-45c2-a66e-07cb8dbe5a38, rgb(136, 0, 255)) /* {&quot;name&quot;:&quot;Purple&quot;} */" style="user-select: none; width: 100%; height: 100%; display: inline-block; fill: var(--token-2e606580-c5cb-45c2-a66e-07cb8dbe5a38, rgb(136, 0, 255)) ; flex-shrink: 0; cursor: auto;"><g color="var(--token-2e606580-c5cb-45c2-a66e-07cb8dbe5a38, rgb(136, 0, 255)) /* {&quot;name&quot;:&quot;Purple&quot;} */" weight="fill"><path d="M228.7,88A15.9,15.9,0,0,0,224,76.7L179.3,32a16.1,16.1,0,0,0-22.6,0L36.7,152a16,16,0,0,0-3.6,5.4l-.3.8a17,17,0,0,0-.8,5.1V208a16,16,0,0,0,16,16H92.7a14.4,14.4,0,0,0,5.1-.9l.8-.2a16,16,0,0,0,5.4-3.6l83.7-83.7,3.4,13.9-36.8,36.8a8.1,8.1,0,0,0,0,11.4,8.2,8.2,0,0,0,11.4,0l40-40a8.5,8.5,0,0,0,2.1-7.6l-6.9-27.6L224,99.3A15.9,15.9,0,0,0,228.7,88ZM192,108.7,147.3,64,168,43.3,212.7,88Z"></path></g></svg>